<?xml version="1.0" encoding="UTF-8"?>
<svg width="37px" height="32px" viewBox="0 0 37 32" version="1.1" xmlns="http://www.w3.org/2000/svg" xmlns:xlink="http://www.w3.org/1999/xlink">
    <defs></defs>
    <g id="Mockups" stroke="none" stroke-width="1" fill="none" fill-rule="evenodd">
        <g id="Individual-Product" transform="translate(-473.000000, -2456.000000)" fill-rule="nonzero" fill="#cd2533">
            <g id="Group-3" transform="translate(461.000000, 2444.000000)">
                <g id="shopping-cart-copy" transform="translate(12.350877, 12.037736)">
                    <path d="M16.2807018,24.0754717 C14.1137957,24.0754717 12.3508772,25.7936935 12.3508772,27.9056604 C12.3508772,30.0176272 14.1137957,31.7358491 16.2807018,31.7358491 C18.4476078,31.7358491 20.2105263,30.0176272 20.2105263,27.9056604 C20.210439,25.7936935 18.4475206,24.0754717 16.2807018,24.0754717 Z M16.2807018,29.5970882 C15.3236639,29.5970882 14.5450998,28.8381785 14.5450998,27.9054903 C14.5450998,26.972717 15.3237512,26.2138923 16.2807018,26.2138923 C17.2376523,26.2138923 18.0163037,26.972802 18.0163037,27.9054903 C18.0163037,28.8383486 17.2376523,29.5970882 16.2807018,29.5970882 Z" id="Shape"></path>
                    <path d="M26.3859649,24.0754717 C24.2190588,24.0754717 22.4561404,25.7936935 22.4561404,27.9056604 C22.4561404,30.0176272 24.2190588,31.7358491 26.3859649,31.7358491 C28.552871,31.7358491 30.3157895,30.0176272 30.3157895,27.9056604 C30.3157022,25.7936935 28.5527837,24.0754717 26.3859649,24.0754717 Z M26.3859649,29.5970882 C25.4289271,29.5970882 24.6503629,28.8381785 24.6503629,27.9054903 C24.6503629,26.972717 25.4290144,26.2138923 26.3859649,26.2138923 C27.3430027,26.2138923 28.1215669,26.972802 28.1215669,27.9054903 C28.1215669,28.8383486 27.3429155,29.5970882 26.3859649,29.5970882 Z" id="Shape"></path>
                    <path d="M35.5327581,6.0045417 C35.1963369,5.61470705 34.6978102,5.39116827 34.1651081,5.39116827 L6.68621168,5.39116827 L6.13126393,2.84776877 C6.0154042,2.31721202 5.63210568,1.87172455 5.10571935,1.65593742 L1.23364647,0.0691699081 C0.786628617,-0.114153086 0.267119482,0.0795054292 0.0732246095,0.501406704 C-0.120880789,0.923440485 0.0842421611,1.41398022 0.531049491,1.5970382 L4.40319255,3.18387197 L8.67168676,22.7458997 C8.83982722,23.5162935 9.56656457,24.0754717 10.3997581,24.0754717 L31.534229,24.0754717 C32.0214574,24.0754717 32.4164051,23.7025979 32.4164051,23.2426009 C32.4164051,22.782604 32.0214574,22.4097302 31.534229,22.4097302 L10.3998283,22.4097302 L9.88059988,20.0301752 L31.6975976,20.0301752 C32.530721,20.0301752 33.2575285,19.470997 33.4255988,18.7006032 L35.8931795,7.39281421 C36.0006181,6.90041938 35.8692496,6.39431011 35.5327581,6.0045417 Z M31.6975976,18.3645662 L9.51716103,18.3645662 L7.04972071,7.05684352 L34.1650379,7.05690977 L31.6975976,18.3645662 Z" id="Shape"></path>
                </g>
            </g>
        </g>
    </g>
</svg>
