<svg height="69" viewBox="0 0 48 69" width="48" xmlns="http://www.w3.org/2000/svg" xmlns:xlink="http://www.w3.org/1999/xlink"><mask id="a" fill="#fff"><path d="m0 69v-69h48v69z" fill="none"/></mask><g fill="#fff" fill-rule="evenodd" transform=""><path d="m10.9217131 15.2797991c.3641207.6833046 1.1789004.9224348 1.8197792.5341337.6408788-.3881254.8652193-1.256444.5010986-1.9397486-1.1076917-2.1787032-.5010986-3.2327387.408791-4.80720309 1.0813181-1.88334831 2.6373611-4.45579935-.540659-8.57425112-.4729119-.59018257-1.305329-.66011191-1.8591748-.15602325-.5294503.48195022-.6161535 1.31969672-.1979669 1.91304193 1.9384604 2.57245103 1.3186805 3.61243038.3428569 5.34151246-1.66961442 2.19715185-1.8598341 5.27720557-.474725 7.68853797" mask="url(#a)"/><path d="m21.9217131 15.2828775c.3641207.6803839 1.1789004.918492 1.8197792.5318506.6408788-.3864664.8652193-1.2510735.5010986-1.9314574-1.1076917-2.1693905-.5010986-3.2189207.408791-4.78665522 1.0813181-1.87529817 2.6373611-4.43675357-.540659-8.5376015-.4374723-.6179264-1.2641202-.74266636-1.8463177-.2783468-.5823623.46431956-.6997249 1.34169807-.2624174 1.95962448.0166483.02344341.0337912.04618702.0515934.06823083 1.9384604 2.5614554 1.3186805 3.59698948.3428569 5.3186808-1.6696144 2.18776038-1.8598341 5.25447381-.474725 7.65567421" mask="url(#a)"/><path d="m32.9217131 15.2828742c.3641207.680387 1.1789004.9184963 1.8197792.5318531.6408788-.3864683.8652193-1.2510794.5010986-1.9314665-1.1076917-2.1694007-.5010986-3.2189358.408791-4.78667771 1.0813181-1.87530697 2.6373611-4.43677438-.540659-8.53764156-.4374723-.6179293-1.2641202-.74249489-1.8463177-.2783481-.5823623.46432173-.6997249 1.34170436-.2622526 1.95980862.0164835.02326857.0336264.04601229.0514286.0680562 1.9384604 2.56146741 1.3186805 3.59700635.3428569 5.31870575-1.6696144 2.18777065-1.8598341 5.2546734-.474725 7.6557102" mask="url(#a)"/><path d="m24 48.181068c-3.0795059-.0017002-6.1224593-.6744497-8.920831-1.9721744-5.95822571-2.726361-10.32784952-8.0862548-11.8315553-14.5124829 4.43346435 2.8292201 12.76137 4.3251824 20.7523863 4.3251824s16.318922-1.4959623 20.7523863-4.3251824c-2.2889949 9.6900066-10.8828748 16.5164501-20.7523863 16.4846573zm11.2521056 8.0383105h-22.4637844l2.5603593-6.9366131c5.5778776 2.1872433 11.7651881 2.1872433 17.3430657 0zm-26.46603036-33.5405649v8.5279539c-3.9079169-1.2649119-6.09096014-2.8970561-6.09096014-4.2571764 0-1.3601202 2.16956766-2.9650621 6.09096014-4.2299739zm2.69511506-.7480661c2.157945-.4870931 4.3460416-.8279732 6.5491297-1.0200902v12.0506653c-2.2030881-.192117-4.3910162-.5328271-6.5491297-1.0200902zm9.2442448-1.210507h3.2745649c1.1319483 0 2.22347 0 3.2745649.0816072v12.4587013c-1.0645705 0-2.1426166.0816072-3.2745649.0816072s-2.22347 0-3.2745649-.0816072zm9.2442449.2448216c2.2030881.192287 4.3910162.5329971 6.5491297 1.0200902v10.0376873c-2.1581135.4872631-4.3460416.8279732-6.5491297 1.0200902zm9.2442448 1.7681563c3.9079169 1.2649118 6.0909601 2.8970561 6.0909601 4.2571763 0 1.3601203-2.1830432 2.9922646-6.0909601 4.2573464zm8.7860752 4.2571763c0-5.8757194-12.3705783-8.9903947-24-8.9903947s-24 3.1690801-24 9.0311983c.03621561 8.9307195 5.00583942 17.0950112 12.8826502 21.1634709l-7.03425042 19.0416832c-.22066255.7174634.17669848 1.4796408.88753509 1.7021905.6539023.2048681 1.35614823-.1178204 1.63239753-.7499363l3.4093206-9.2353864h24.4716451l3.4093207 9.2353864c.3003368.6872008 1.0959011.9984983 1.7767546.6953615.6264458-.2788247.9461538-.9876173.743178-1.6476157l-7.0342504-19.0416832c7.879169-4.0827409 12.8396968-12.2647142 12.855699-21.2042745z" mask="url(#a)"/></g></svg>