<svg height="89" viewBox="0 0 112 89" width="112" xmlns="http://www.w3.org/2000/svg" xmlns:xlink="http://www.w3.org/1999/xlink"><mask id="a" fill="#fff"><path d="m8.74115158 15.5567446h-8.35293345v-15.55667683h8.35293345z" fill="none"/></mask><mask id="b" fill="#fff"><path d="m0 61.0746269h83.496v-60.6545948h-83.496z" fill="none"/></mask><g fill="none" fill-rule="evenodd"><g transform="translate(1 1)"><path d="m0 0h110v87h-110z" fill="#d0222c" fill-rule="evenodd"/><path d="m-.5-.5h111v88h-111z" stroke="#fff"/></g><g transform="translate(16 13)"><path d="m81 32v.2381207h-.8316901v1.7618793h-.3366198v-1.7618793h-.8316901v-.2381207z" fill="#fefefe"/><path d="m81.5475476 32.1493955h.393931l.5839448 1.8247485.5793104-1.8247485h.3910345v2.1583543h-.2624276v-1.2739246c0-.0443655.0005793-.1169636.0028965-.2189467.001738-.1019831.0028966-.2114565.0028966-.327844l-.5798897 1.8207153h-.2722758l-.5851035-1.8207153v.0662602c0 .0530081.0011586.1336727.0040552.2414176.0028966.1088972.0040552.1878333.0040552.2391129v1.2739246h-.2624276z" fill="#fefefe"/><path d="m81.3014566 32.1493955v.2569744h-.6841656v1.9013799h-.2769103v-1.9013799h-.6841655v-.2569744z" fill="#030404"/><path d="m81.5475476 32.1493955h.393931l.5839448 1.8247485.5793104-1.8247485h.3910345v2.1583543h-.2624276v-1.2739246c0-.0443655.0005793-.1169636.0028965-.2189467.001738-.1019831.0028966-.2114565.0028966-.327844l-.5798897 1.8207153h-.2722758l-.5851035-1.8207153v.0662602c0 .0530081.0011586.1336727.0040552.2414176.0028966.1088972.0040552.1878333.0040552.2391129v1.2739246h-.2624276z" fill="#030404"/><path d="m19.755931 13.583458c0 .292121-.2380965.6873776-.5318069.6873776l-9.45318617-.0092188-.36670345-.0092188-.21608276-.1797669v-6.47736746h10.02670348c.2236138 0 .4130482.14058688.4883586.33648663.0330207.06856491.0527172.14346775.0527172.22413235zm0 14.3248808c0 .2926973-.233462.6960203-.5271724.6960203l-9.70228963.1688195.01448275-.3750904.01390345-.1158113.04228966-7.9103166 9.61771037.0103712c.2236138 0 .4130482.1400107.4883586.3364866.0330207.0679888.0527172.1434678.0527172.2235562zm8.0877518-13.3874429c-.0225931-3.1747283-.0057931-6.35003271-.0127449-9.52476095-.0005793-.41254182-.0156413-.83026922-.0770482-1.23762546-.1598897-1.049216-.7050207-1.82647705-1.7697931-2.09843199-.5839449-.14980569-1.2032276-.22240383-1.806869-.22355618-7.3178483-.0144044-14.63511726-.00979499-21.95296553-.00979499h-.42231724v32.98029847c.11412414.0051856.19928276.0138283.28444138.0138283 7.48990345 0 14.97864829.003457 22.46855169-.0028809 1.6956414-.0017286 3.2754207-1.5839071 3.277738-3.2697973.0057931-3.8338732.0121655-7.6683227-.0115862-11.5027721-.0028966-.4465362-.1552552-.9045959-.3047173-1.3338468-.2160827-.6205413-.7519448-.9587565-1.3411034-1.272196.125131-.0714458.2073931-.1175399.2902344-.1647863.9118345-.5220152 1.3862897-1.2727722 1.3781794-2.3536778z" fill="#cf212c"/><path d="m69.4867117 13.543529c0 .2921211-.2380965.8302692-.5323862.8302692h-9.8088827v-6.77813123h9.8175724c.2890758 0 .5236965.23277499.5236965.52086285zm0 14.325457c0 .2921211-.2380965.698325-.5323862.698325h-9.6959172v-8.1851523h9.7046069c.2890758 0 .5236965.232775.5236965.5202866zm8.1045517-13.348263c-.0225931-3.1741521-.0057931-6.34945648-.0115862-9.5247609-.0011586-.41254182-.0168-.82969305-.0782069-1.23704929-.1593103-1.04979217-.7050206-1.82647705-1.7697931-2.09900816-.5839448-.14980569-1.2032275-.22240383-1.8068689-.22355618-7.317269-.0144044-14.6351173-.00864264-21.9523862-.00921882h-.4228966v32.97972235c.1141242.0057617.1998621.0138282.2844414.0138282 7.4899034 0 14.9798069.0034571 22.4685517-.0028809 1.6956414-.0011523 3.2754207-1.583907 3.2783173-3.269221.0057931-3.8344495.0115862-7.6688989-.0121656-11.5027722-.0028965-.4471124-.1540965-.9045959-.3041379-1.334423-.2160827-.6199651-.7519448-.9587564-1.3416827-1.272196.1257103-.0714458.2085517-.1175398.2902344-.1647863.9124138-.5220152 1.3857104-1.272196 1.3781793-2.3536778z" fill="#cf212c"/><path d="m40.1817186 23.6524745h-.7473103v-3.2467503h6.4396138v3.2467503c-.2485242 0-.4715587.0161329-.6916966-.0040333-.2856-.0259279-.4043586.0610747-.3852414.3676001.026069.4188798-.0162207.842369.0098483 1.2612487.1129655 1.7861448-.6888 3.1274818-2.0061517 4.2521769-1.7587862 1.5015139-4.6176828 1.5660456-6.2826207.4678546-1.5033103-.9921746-2.3856-2.3461875-2.361269-4.1997448.0225931-1.681857-.0011586-3.3654424.0654621-5.0449947.0382345-.9604849.3249931-1.8794852.9906207-2.6227519.2195586-.246027.4953103-.4413506.7600552-.672397-.2357793-.1699719-.4993656-.3272679-.7235587-.5283532-.6940137-.6216936-1.0276965-1.4300681-1.0468137-2.3381211-.0295449-1.419697-.0868966-2.8480366.0260689-4.2596671.1627862-2.05867587 2.0200552-3.85749649 4.2990621-3.92433287 1.5345931-.04436553 2.9162483.26043143 4.0285241 1.3741791.84.84006421 1.3075035 1.8489479 1.3086621 3.05085047.0005793.816441.0034759 1.632882-.0011586 2.449323-.0011586.4442315-.1888552.6401312-.6279724.6435883-.8208828.0069141-1.6417656.0063379-2.4626483-.0011524-.4431724-.0040332-.5845242-.160753-.5851035-.6124748-.0011586-.8538924-.0249103-1.708361.0075311-2.5611011.0168-.4355888-.3504828-.75594251-.7716414-.76112809-.5092138-.00691411-.8440552.23507969-.849269.72137199-.0162207 1.3730268-.0139034 2.7466297.001738 4.1190803.0057931.4586359.3081931.7006297.8313103.7046629 1.0444966.0086426 2.0895724.0028809 3.134069.0028809h.2792276v3.5112148h-.3539587c-1.0074207.0005762-2.0148413 0-3.022262.0023047-.6158069.0011524-.8759173.2408415-.8776552.8446737-.0057931 1.9791636.0023172 3.9589034-.0028966 5.938067-.0023172.7928178.6806897.9529946 1.1916414.7490284.1813242-.0725981.3962483-.3289963.4072552-.5127964.0446069-.787056.0185379-1.5775691.0185379-2.4170571" fill="#231f20"/><path d="m34.6041766 52.198467c.3336827 0 .6314482.0040332.9286344-.0005762.5109518-.0080665.8214621-.2149136.9865656-.6902585.2491034-.721372.2716965-1.4640625.0260689-2.180249-.0851586-.2477555-.336-.5335387-.5758345-.6136271-.418262-.1400107-.8863448-.1348251-1.3654344-.1941712zm-3.1033656-6.3102766c.5329656 0 1.0410207-.0023047 1.5484966.0005762 1.1806345.0063379 2.3659034-.0449417 3.5419034.0362991 1.8821793.1302157 2.7830069.9535708 3.0738207 2.8151946.1204966.7720754.1158621 1.5827547.0312828 2.3617443-.1199173 1.1062574-.4872 1.5850594-1.4726069 2.2781988.1674207.0789361.3238345.1371298.4646069.2218276.5688827.3405199.9124138.8412166.9552827 1.5026663.0741518 1.13449.1176 2.2701324.1766897 3.4057747.0156414.308254.0081103.622846.0689379.9236097.0643035.3168967.1987035.6211175.3012414.9311.0312828.0973737.0573517.1958997.0979035.3347581-1.1134345 0-2.1677794.0080665-3.2209656-.0144044-.0961655-.0017285-.2601103-.1924427-.2711172-.3065255-.0614069-.6626021-.091531-1.328085-.1233931-1.993568-.0376552-.7893607-.0110069-1.5862118-.1135448-2.3657775-.1176-.9005627-.4738759-1.1471659-1.3816552-1.1477421h-.5897379v5.8003611h-3.0871449z" fill="#231f20"/><path d="m15.3143586 60.6672706h-3.0848276v-14.7552841h3.0691862v5.6234751h2.1225931v-5.6269322h3.0917794v14.7535556h-3.0738207v-6.1034294h-2.1249104z" fill="#231f20"/><path d="m5.62736276 7.73222061h.0110069c0-1.05036834.01911724-2.10073669-.00926897-3.15052886-.01216552-.43846973-.08342069-.88442974-.20333793-1.30619037-.10369655-.36817629-.39914483-.57617573-.81335173-.58308983-.42405517-.00691411-.73051034.1849524-.87186206.56522838-.11412414.30767784-.21318621.64301211-.21550345.96624669-.01622069 2.34733991-.02606897 4.69525599.01274482 7.04201968.00695173.419456.1732138.8803965.39798621 1.2416587.32615173.5237438 1.07172414.4874447 1.35037242-.0610746.19464827-.3814283.30935172-.8389119.32615172-1.2681628.04344828-1.1471658.01506207-2.29721259.01506207-3.44610699m3.03906207-.14807716c0 1.44504872.03244138 2.89182595-.0168 4.33572235-.01795862.5174058-.18827586 1.0446066-.36786207 1.5389653-.38350345 1.0595872-1.17426207 1.685314-2.27147586 1.9347981-.97324138.2212515-1.95343449.2189468-2.91566897-.0155567-1.37006896-.3341819-2.16372414-1.268739-2.45222069-2.6060428-.14482758-.6712447-.22303448-1.3684174-.23172414-2.0546427-.02722758-2.22576678-.03649655-4.45210978.01158621-6.67672426.01332414-.62687919.15988966-1.28429569.3974069-1.86623317.6216-1.52340862 1.91288276-2.09439876 3.47006896-2.1669969.48024828-.02247086.97555862.00518558 1.44537931.10083075 1.64582069.3347581 2.66946207 1.43871078 2.91103449 3.10501098.06140689.42579386.08284137.86023036.08805517 1.2912098.01274483 1.02674514.00405517 2.05291411.00405517 3.07908308-.02433103 0-.04808276 0-.07183448.00057617" fill="#231f20" mask="url(#a)" transform="translate(50.4 45.517882)"/><path d="m49.4931476 51.0472679h-3.117269c0-.422913.0278069-.8302693-.0086896-1.2318637-.0301242-.3399437-.1019587-.6844968-.2155035-1.0060028-.1569931-.4465362-.4576552-.6165081-.9182069-.6009513-.4547586.0155567-.7745379.2391129-.8990896.6868014-.0747311.2696503-.1181793.5577381-.119338.8377595-.0092689 2.4988742-.007531 4.9971721-.0023172 7.49547.0011586.4413507.126869.8412166.5712 1.0423019.6192828.2805976 1.2785379.0074903 1.4448-.6562641.1245517-.4978158.1425103-1.0238643.1790069-1.5395416.0266483-.3785474.0052138-.7599757.0052138-1.1794317.9199448 0 1.7993379-.0005761 2.678731.0005762.1222345.0005762.2438897.0103712.4176828.0190138-.0434483 1.3090713.166262 2.6135331-.3412138 3.859225-.429269 1.0532492-1.2113379 1.7273748-2.3056552 2.0471524-.9350069.2731073-1.8873931.3065255-2.8426759.1532627-1.469131-.2345035-2.4985655-1.3027333-2.753462-2.8785739-.0926897-.570414-.1413517-1.15408-.1459862-1.7319842-.0162207-2.1520164-.0422897-4.3051851.0127448-6.456049.0202759-.7640091.1836414-1.5464557.42-2.2764703.3499034-1.082058 1.1881655-1.7031755 2.2905931-1.9624546.9726621-.2281655 1.9499586-.206847 2.9203035.006338 1.4407448.3163205 2.3942896 1.3753314 2.6410758 2.9189062.042869.2679217.0770483.5398767.084.8101031.0133242.5306578.0040552 1.0613157.0040552 1.642677" fill="#231f20"/><path d="m10.8829821 51.0450208h-3.117269c-.03475862-.5600428-.05561379-1.0993433-.10891034-1.6369153-.02143448-.216642-.09153104-.4367412-.18016552-.6372503-.18595862-.4234892-.47561379-.5894278-.9465931-.5571619-.42057931.0288088-.74904828.2235562-.85564138.6441644-.08110345.3197776-.12744828.6568404-.1286069.9858367-.00926896 2.3991957-.00695172 4.7989676.00057931 7.1981633.00057931.2316227.03417931.4690071.09558621.6914109.10775172.3906471.40609655.5761757.7953931.622846.4142069.0495511.80582069-.0339944.97382069-.4419268.15699311-.380276.26995862-.7962749.30471724-1.2047835.0504-.5865469.01332414-1.1800078.01332414-1.7919065h3.11321375c-.0451862 1.3257804.1685794 2.6532892-.3707586 3.9185711-.4472276 1.0515207-1.24725515 1.7043278-2.34273101 2.0045154-.93732414.2563982-1.88971035.3001875-2.84325517.1117781-1.4836138-.2926973-2.42615173-1.2854481-2.68452414-2.852646-.09384828-.570414-.14366897-1.15408-.14830345-1.7319843-.01737931-2.1888915-.02085517-4.3777831-.00347586-6.5666747.00695172-.8567733.15988965-1.6945328.55208276-2.4735224.46113103-.9166956 1.22697931-1.4438964 2.2065931-1.6668764.93153104-.2120326 1.87406897-.2056947 2.80849655.0017286 1.47492414.3284201 2.39950342 1.2341684 2.65613792 2.7091782.1500414.8671445.143669 1.760793.2102897 2.6734554" fill="#231f20"/><path d="m65.4252828 55.1502728c-.2763311-2.1139887-.5457104-4.1824596-.815669-6.2503542-.0272276.0011523-.0538759.0023047-.0805241.003457-.2803863 2.0742326-.5607725 4.1473129-.8440552 6.2468972zm3.8692138 5.5220682h-3.1248c-.1483035-.9524185-.2960276-1.8990752-.4483863-2.8826072-.7536827 0-1.4853517-.0080664-2.2152827.0132521-.0677793.0011523-.1726345.1797668-.1882759.2869355-.1123862.7697707-.199862 1.5429986-.3134069 2.3133455-.0144827.1008308-.1286069.2673455-.1987034.2690741-.9674483.0172852-1.9354759.0115235-2.9596966.0115235.1344-.7110009.2566345-1.3851265.388138-2.0575235.6152275-3.1620524 1.2321931-6.3235286 1.8485793-9.4861572.1934896-.9927507.3974069-1.9849253.5758345-2.9811332.0405517-.2293179.1378758-.2713787.3441103-.2696502 1.0694069.0069141 2.1393931.0074903 3.2082207-.0034571.2120276-.0023047.276331.0835455.3128276.2702265.9106758 4.7286741 1.8265655 9.456196 2.7395586 14.1837178.0185379.0962213.0185379.1958997.0312828.3324534z" fill="#231f20"/><path d="m26.8309903 55.1491205c-.2728551-2.0967035-.5422344-4.1680552-.8110344-6.239407-.0283862.0023047-.0561931.0046095-.0845793.0074903-.2798069 2.0713518-.5601932 4.1432797-.8423173 6.2319167zm3.8877518 5.5197634h-3.1439173c-.1454069-.9460805-.2896551-1.8823661-.4425931-2.8768454-.7432551 0-1.4836138-.0080664-2.2233931.0132521-.0666207.0017285-.1674207.1849524-.1842207.2932734-.1129655.770347-.2021793 1.544151-.3180413 2.3139217-.0144828.0991022-.1332414.2592791-.2062345.2604315-.9674483.0172852-1.9360552.0115235-2.9550621.0115235.9616552-4.9424354 1.9140414-9.8439623 2.8704828-14.7610459.0950069-.0120997.1784275-.0316897.2618482-.0316897 1.0572414-.0023047 2.1139035.0040332 3.1705656-.0063379.2421517-.0023047.3388965.0639555.3875586.3174728.780331 4.0741385 1.5745655 8.1453962 2.3635862 12.2183824.1425103.7375049.2757517 1.4767384.4194207 2.2476615z" fill="#231f20"/><path d="m70.0784772 60.6577061v-14.74837h3.0813518v11.7701177h3.7365517v2.9782523z" fill="#231f20"/><g fill="#030404"><path d="m1.8991531 42.6280153c.37249656 0 .63782069-.0991022.79655173-.2973067.09964138-.1250301.14946207-.2765643.14946207-.4540264 0-.2990352-.1454069-.5030014-.43622069-.6107463-.15525518-.0581937-.35917242-.0875787-.61406897-.0875787h-1.20554483v1.4496581zm-.20391724-1.9008037c.2572138 0 .45649655-.0322658.5990069-.0979499.2241931-.1025592.33657931-.2880878.33657931-.5554334 0-.2684979-.11933793-.4499932-.35743448-.5433337-.13497931-.052432-.33484138-.0789361-.59958621-.0789361h-1.08446897v1.2756531zm-1.69506207-1.7400507h1.91983449c.52369655 0 .8961931.1434678 1.11748965.4315556.12918621.1699719.19464828.3658716.19464828.5882754 0 .2598553-.07936552.4724641-.23867587.6395551-.08284137.0875787-.2016.1676671-.35743448.2408415.22824828.0800884.39856552.170548.51153104.2713787.19928276.1797668.29950344.4269462.29950344.7426905 0 .265617-.09037241.5058823-.27111724.7207959-.26995862.321506-.69864827.4816829-1.28722758.4816829h-1.88855173z"/><path d="m6.0606869 38.9869304h3.22270344v.5041538h-2.63644137v1.2503013h2.43715862v.4764973h-2.43715862v1.3960738h2.68220689v.4903256h-3.26846896z"/><path d="m15.219931 38.9869304v.4903256h-1.4963586v3.6270262h-.6076965v-3.6270262h-1.496938v-.4903256z"/><path d="m20.8602703 38.9869304v.4903256h-1.4963586v3.6270262h-.6082758v-3.6270262h-1.4963587v-.4903256z"/><path d="m23.3291172 38.9869304h3.2227035v.5041538h-2.6358621v1.2503013h2.4365793v.4764973h-2.4365793v1.3960738h2.6816276v.4903256h-3.268469z"/><path d="m31.2861766 40.8730417c.2745931 0 .4918344-.052432.6511448-.1567198.1598896-.104864.2398345-.2932735.2398345-.5663808 0-.2938496-.1112276-.4932064-.3348414-.5997989-.1199173-.0564652-.2792276-.0841216-.479669-.0841216h-1.4291586v1.4070211zm-1.9540138-1.8858232h2.0188965c.3325241 0 .6065379.0455179.8220414.1371299.4101517.1757335.6152276.4995443.6152276.9720084 0 .2471794-.0556138.4488409-.1651035.6055607-.1100689.157296-.2635862.2829023-.461131.3785474.1737931.0656841.3035586.1515343.3916138.2581268.0874758.1060163.1367172.2794452.1465655.5185581l.0214345.5519764c.0057931.1567198.0202758.2736834.0422896.3503148.0359173.1307919.1008.2149135.1934897.252365v.0921881h-.7380414c-.0202758-.0351467-.0359172-.0812408-.0480827-.1371298-.0121656-.0558891-.0225931-.1642101-.0301242-.3255393l-.0364965-.6862253c-.0139035-.2690741-.1187587-.4494171-.3145655-.541029-.1112276-.0501273-.2867587-.075479-.5260138-.075479h-1.3306759v1.7654024h-.6013241z"/><path d="m81.3020359 32.1488193v.2569744h-.6841656v1.9019561h-.2774896v-1.9019561h-.6841655v-.2569744z"/><path d="m81.5475476 32.1488193h.393931l.5839448 1.8253247.5793104-1.8253247h.3910345v2.1589305h-.2624276v-1.2745007c0-.0437894.0005793-.1169637.0028965-.2189468.001738-.1014069.0028966-.2108803.0028966-.3272678l-.5798897 1.8207153h-.2722758l-.5851035-1.8207153v.0662602c0 .052432.0011586.1336727.0040552.2414176.0028966.108321.0040552.1878333.0040552.2385368v1.2745007h-.2624276z"/><path d="m41.9100331 42.6280153c.3724966 0 .6378207-.0991022.7965517-.2973067.0996414-.1250301.1494621-.2765643.1494621-.4540264 0-.2990352-.1454069-.5030014-.4362207-.6107463-.1552552-.0581937-.3591724-.0875787-.614069-.0875787h-1.2055448v1.4496581zm-.2039172-1.9008037c.2572138 0 .4564965-.0322658.5990069-.0979499.2236138-.1025592.336-.2880878.336-.5554334 0-.2684979-.1187587-.4499932-.3568552-.5433337-.1349793-.052432-.3348414-.0789361-.5995862-.0789361h-1.084469v1.2756531zm-1.6950621-1.7400507h1.9198345c.5236965 0 .8961931.1434678 1.1174896.4315556.1291862.1699719.1946483.3658716.1946483.5882754 0 .2598553-.0799448.4724641-.2386759.6395551-.0828413.0875787-.2016.1676671-.3574344.2408415.2282482.0800884.3985655.170548.511531.2713787.1992828.1797668.2995034.4269462.2995034.7426905 0 .265617-.0903724.5058823-.2711172.7207959-.2699586.321506-.6986483.4816829-1.2872276.4816829h-1.8885517z"/><path d="m46.8494648 38.9869304v2.5449682c0 .2990352.0608276.547367.1830621.7455714.1807448.298459.4854621.4482647.914731.4482647.513269 0 .8631724-.1613292 1.0479724-.4851399.0996414-.1751575.1494621-.4113895.1494621-.7086962v-2.5449682h.6076966v2.3121932c0 .5064585-.0735724.8959533-.2212966 1.1690606-.2711172.4966634-.7832276.7455714-1.5351724.7455714-.7525241 0-1.2634759-.248908-1.5322759-.7455714-.1477241-.2731073-.2218758-.6626021-.2218758-1.1690606v-2.3121932z"/><path d="m54.741989 40.8730417c.2745931 0 .4912551-.052432.6511448-.1567198.1593103-.104864.2392552-.2932735.2392552-.5663808 0-.2938496-.1112276-.4932064-.3348414-.5997989-.1193379-.0564652-.2792276-.0841216-.4790897-.0841216h-1.4291586v1.4070211zm-1.9545931-1.8858232h2.0188965c.3331035 0 .6065379.0455179.8226207.1371299.4095724.1757335.6146483.4995443.6146483.9720084 0 .2471794-.0550345.4488409-.1645242.6055607-.1100689.157296-.2635862.2829023-.461131.3785474.1732138.0656841.3035586.1515343.3916138.2581268.0874759.1060163.1361379.2794452.1459862.5185581l.0220138.5519764c.0052138.1567198.0196966.2736834.0422897.3503148.0359172.1307919.1008.2149135.1934896.252365v.0921881h-.7386207c-.0196965-.0351467-.0359172-.0812408-.0480827-.1371298-.0121656-.0558891-.0220138-.1642101-.0301242-.3255393l-.0364965-.6862253c-.0133242-.2690741-.1181793-.4494171-.3139862-.541029-.1118069-.0501273-.2867587-.075479-.5260138-.075479h-1.3306759v1.7654024h-.6019034z"/><path d="m59.2305434 38.9869304h.7090759l2.2147035 3.3262625v-3.3262625h.5746758v4.1173518h-.6766345l-2.2477241-3.3228054v3.3228054h-.5740966z"/><path d="m65.882069 43.1042822h.6076965v-4.1173518h-.6076965z" mask="url(#b)"/><path d="m69.5098841 38.9869304h.7090759l2.2147034 3.3262625v-3.3262625h.5746759v4.1173518h-.6760552l-2.2483034-3.3228054v3.3228054h-.5740966z" mask="url(#b)"/><path d="m78.9819559 39.1045279c.435062.2149136.7009655.5911563.7982896 1.1293044h-.5949517c-.0712552-.3007637-.2184-.5197105-.4414345-.6574165-.2236138-.1371298-.5045793-.2056947-.8440552-.2056947-.4026207 0-.7415172.1428916-1.0172689.4286747-.2751724.2857832-.4130483.7121532-.4130483 1.278534 0 .4891732.1135448.8878868.3412138 1.1949884.2270896.3076779.597269.4615168 1.1111172.4615168.3933518 0 .7183449-.1083211.9755587-.3238108.2583724-.2160659.3904551-.5646522.3962482-1.0469113h-1.3903448v-.4626691h1.9499586v2.2027198h-.3869793l-.1454069-.5295055c-.2004414.2079995-.3777103.3514672-.5323862.4315556-.259531.1388584-.5903172.2079995-.9906207.2079995-.5173241 0-.9622345-.1584483-1.3353103-.4736165-.4066759-.3964089-.6094345-.9403188-.6094345-1.6317296 0-.6896824.1981241-1.2382017.5961103-1.6455579.3771311-.3883424.8654897-.5830898 1.4656552-.5830898.4113104 0 .7670069.0749028 1.0670897.2247085" mask="url(#b)"/></g><path d="m69.4556028 27.9107588c0 .2921211-.2380966.5289293-.5323862.5289293h-9.4630345v-8.0157567h9.4717241c.2890759 0 .5236966.2333512.5236966.5208629zm-9.9954207-20.27389527h9.4717241c.2890759 0 .5236966.23392735.5236966.52143903v5.42757534c0 .2921211-.2380966.5289293-.5323862.5289293h-9.4630345zm18.1312551 6.88414757c-.0225931-3.1747283-.0057931-6.35003267-.0121655-9.52533709-.0011586-.41254182-.0162207-.82969305-.0776276-1.23704928-.1598896-1.049216-.7050207-1.82647705-1.7697931-2.09900817-.5839448-.14922951-1.2026482-.22182766-1.8068689-.22298001-7.317269-.01498057-14.6351173-.00979498-21.9529655-.00979498h-.4223173v32.97972233c.1141241.0057618.1998621.0144044.2844414.0144044 7.4899034 0 14.9792276.003457 22.4685517-.0028809 1.6956414-.0017285 3.2754207-1.5839071 3.2777379-3.2697972.0063725-3.8338733.0121656-7.6683228-.0115862-11.5027722-.0028965-.4465362-.1546758-.9045959-.3047172-1.334423-.2155035-.6193889-.7513655-.9587564-1.3411035-1.2716198.1257104-.0708696.2079725-.1175399.2902345-.1647863.9118345-.5225914 1.3857104-1.2727721 1.3781793-2.3536778z" fill="#231f20" mask="url(#b)"/><path d="m19.7073269 27.9107588c0 .2921211-.2380966.5289293-.5318069.5289293h-9.46303448v-8.0157567h9.47114478c.2896552 0 .5236966.2333512.5236966.5208629zm-9.99484138-20.27389527h9.47114478c.2896552 0 .5236966.23392735.5236966.52143903v5.42757534c0 .2921211-.2380966.5289293-.5318069.5289293h-9.46303448zm18.13125518 6.88414757c-.0225931-3.1747283-.0057931-6.35003267-.0127448-9.52533709-.0005793-.41254182-.0156414-.82969305-.0770483-1.23704928-.1598897-1.049216-.7050207-1.82647705-1.7697931-2.09900817-.5839448-.14922951-1.2032276-.22182766-1.806869-.22298001-7.3178483-.01498057-14.63511722-.00979498-21.9529655-.00979498h-.42231724v32.97972233c.11412414.0057618.19928276.0144044.28444138.0144044 7.48990345 0 14.97864826.003457 22.46855176-.0028809 1.6956413-.0017285 3.2748413-1.5839071 3.2777379-3.2697972.0063724-3.8338733.0121655-7.6683228-.0115862-11.5027722-.0028966-.4465362-.1552552-.9045959-.3047173-1.334423-.2160827-.6193889-.7513655-.9587564-1.3411034-1.2716198.125131-.0708696.2073931-.1175399.2902345-.1647863.9118345-.5225914 1.3862896-1.2727721 1.3781793-2.3536778z" fill="#231f20" mask="url(#b)"/><path d="m77.3407697 18.3093089c.149462.4292509.3018206.8878868.3035586 1.3338468.0237517 3.8344494.0185379 7.6688989.0121655 11.5027722-.0023172 1.6858901-1.5820966 3.2680687-3.2771586 3.2697972-7.4899035.0069141-14.9798069.0028809-22.4685518.0028809-.0857379 0-.1708965-.0086427-.2850206-.0138282v-32.97972238h.4228965c7.317269 0 14.6351173-.00518558 21.9523862.00921881.6036414.00172853 1.2235035.0737505 1.806869.22355618 1.0647724.27195495 1.6099034 1.049216 1.7692138 2.09900817.0625655.40678006.0776276.82450746.0782069 1.23704928.0069517 3.17472825-.0104276 6.35003264.0121655 9.52476094.007531 1.0814818-.4657655 1.8316626-1.3776 2.3536778-.0828414.0472464-.1656828.0933405-.2908138.1647863.5891586.3134396 1.1256.6522309 1.3416828 1.272196m1.4366896 1.6023447c-.0005793-1.0509446-.2438896-2.0258339-.9512276-2.8699313.110069-.1348251.2062345-.2454509.294869-.3618384.5700414-.7524855.662731-1.6081064.6540414-2.5265305-.0330207-3.3078249.0098482-6.61680206-.0341793-9.9246269-.0191173-1.46867192-.6129104-2.68267418-2.0281656-3.34239538-.7785931-.36241453-1.6191724-.46670234-2.4742344-.46670234-7.7598621.00115235-15.5197242.00057618-23.2795862.00057618h-.4182621v35.00786084h.3696c7.7227862 0 15.4455724.0011524 23.1689379-.0028808.3052966 0 .614069-.0207424.9158897-.0668364 1.9992-.3065255 3.8130207-2.0022107 3.7910069-4.6019155-.0318621-3.6149265-.0075311-7.2292769-.0086897-10.8447795" fill="#d3a675" mask="url(#b)"/><path d="m27.5924938 18.3093089c.1500414.4292509.3018207.8878868.3041379 1.3338468.0237517 3.8344494.018538 7.6688989.0121655 11.5027722-.0028965 1.6858901-1.5826758 3.2680687-3.2771586 3.2697972-7.4904827.0069141-14.97980688.0028809-22.4685517.0028809-.08573793 0-.17089656-.0086427-.28502069-.0138282v-32.97972238h.42231724c7.31784827 0 14.63511725-.00518558 21.95296555.00921881.6036413.00172853 1.2235034.0737505 1.8062896.22355618 1.0653517.27195495 1.6104828 1.049216 1.7697931 2.09900817.0619862.40678006.0776276.82450746.0782069 1.23704928.0063724 3.17472825-.0104276 6.35003264.0115862 9.52476094.0081104 1.0814818-.4657655 1.8316626-1.3776 2.3536778-.082262.0472464-.1651034.0933405-.2902345.1647863.5891587.3134396 1.1250207.6522309 1.3411035 1.272196m1.4366896 1.6023447c0-1.0509446-.2433103-2.0258339-.9506482-2.8699313.1100689-.1348251.2062345-.2454509.2948689-.3618384.5700414-.7524855.6627311-1.6081064.6534621-2.5265305-.0324414-3.3078249.0098483-6.61680206-.0336-9.9246269-.0191172-1.46867192-.6129103-2.68267418-2.0281655-3.34239538-.7785931-.36241453-1.6191724-.46670234-2.4742345-.46670234-7.7598621.00115235-15.52030344.00057618-23.2795862.00057618h-.41884138v35.00786084h.3696c7.72336552 0 15.44615168.0011524 23.16951728-.0028808.3052965 0 .6140689-.0207424.9158896-.0668364 1.9986207-.3065255 3.8130207-2.0022107 3.7904276-4.6019155-.0312828-3.6149265-.0069517-7.2292769-.0086897-10.8447795" fill="#d3a675" mask="url(#b)"/><path d="m60.5425655 13.0659369h8.0796414v-4.55466909h-8.0796414zm8.4961655-5.47251702h-9.4711448v6.47736752h9.4630345c.2937103 0 .5318069-.2368082.5318069-.5295055v-5.42699916c0-.28751169-.2340414-.52086286-.5236966-.52086286z" fill="#d3a675" mask="url(#b)"/><path d="m60.5425655 27.391394h8.0796414v-6.0936345h-8.0796414zm8.4961655-7.0114824h-9.4711448v8.0157567h9.4630345c.2937103 0 .5318069-.2368083.5318069-.5289294v-6.9659645c0-.2880878-.2340414-.5208628-.5236966-.5208628z" fill="#d3a675" mask="url(#b)"/><path d="m10.794869 13.0659369h8.0796413v-4.55466909h-8.0796413zm8.4961655-5.47251702h-9.47172416v6.47736752h9.46361376c.2937104 0 .5318069-.2368082.5318069-.5295055v-5.42699916c0-.28751169-.2340413-.52086286-.5236965-.52086286z" fill="#d3a675" mask="url(#b)"/><path d="m10.794869 27.391394h8.0796413v-6.0936345h-8.0796413zm8.4961655-7.0114824h-9.47172416v8.0157567h9.46361376c.2937104 0 .5318069-.2368083.5318069-.5289294v-6.9659645c0-.2880878-.2340413-.5208628-.5236965-.5208628z" fill="#d3a675" mask="url(#b)"/></g></g></svg>