<?xml version="1.0" encoding="UTF-8"?>
<svg width="210px" height="85px" viewBox="0 0 210 85" version="1.1" xmlns="http://www.w3.org/2000/svg" xmlns:xlink="http://www.w3.org/1999/xlink">
    <!-- Generator: Sketch 50.2 (55047) - http://www.bohemiancoding.com/sketch -->
    <title>BBQ icon</title>
    <desc>Created with Sketch.</desc>
    <defs>
        <polygon id="path-1" points="0 53 0 0 37 0 37 53"></polygon>
        <path d="M102.5,85 C125.972102,85 145,65.9721019 145,42.5 C145,19.0278981 125.972102,0 102.5,0 C79.0278981,0 60,19.0278981 60,42.5 C60,65.9721019 79.0278981,85 102.5,85 Z" id="path-3"></path>
        <mask id="mask-4" maskContentUnits="userSpaceOnUse" maskUnits="objectBoundingBox" x="0" y="0" width="85" height="85" fill="white">
            <use xlink:href="#path-3"></use>
        </mask>
    </defs>
    <g id="-" stroke="none" stroke-width="1" fill="none" fill-rule="evenodd">
        <g id="Home" transform="translate(-617.000000, -669.000000)">
            <g id="BBQ-icon" transform="translate(618.000000, 669.000000)">
                <circle id="Oval-5-Copy-2" fill="#DE363B" cx="102.5" cy="42.5" r="38.5"></circle>
                <g id="grill-copy-2" transform="translate(85.000000, 14.000000)">
                    <mask id="mask-2" fill="white">
                        <use xlink:href="#path-1"></use>
                    </mask>
                    <g id="Clip-2"></g>
                    <path d="M8.73737049,11.4598493 C9.02866703,11.9723278 9.68049084,12.1516754 10.1931938,11.8604496 C10.7058968,11.5693555 10.8853693,10.9181166 10.5940727,10.4056381 C9.70791939,8.77161078 10.1931938,7.98108416 10.9211055,6.80023583 C11.78616,5.3877246 13.0309944,3.45838632 10.4885783,0.369547495 C10.1102488,-0.0730894333 9.44431514,-0.125536441 9.00123847,0.252530052 C8.57767827,0.613992718 8.50831567,1.24230259 8.84286493,1.6873115 C10.3936333,3.61664978 9.89780939,4.39663429 9.11715049,5.69344585 C7.78145894,7.34130973 7.6292832,9.65135003 8.73737049,11.4598493" id="Fill-1" fill="#FFFFFF" mask="url(#mask-2)"></path>
                    <path d="M17.7373705,11.4621582 C18.028667,11.9724461 18.6804908,12.1510271 19.1931938,11.8610461 C19.7058968,11.5711963 19.8853693,10.9227409 19.5940727,10.4124531 C18.7079194,8.78541015 19.1931938,7.99826254 19.9211055,6.82246161 C20.78616,5.41598799 22.0309944,3.49489644 19.4885783,0.419260488 C19.1386005,-0.0441843143 18.4772822,-0.137739282 18.0115242,0.210500386 C17.5456343,0.558740053 17.4517443,1.21677394 17.8015902,1.68021874 C17.8149089,1.6978013 17.8286232,1.71485901 17.8428649,1.73139187 C19.3936333,3.65248341 18.8978094,4.42913398 18.1171505,5.72040246 C16.7814589,7.36122275 16.6292832,9.66125784 17.7373705,11.4621582" id="Fill-3" fill="#FFFFFF" mask="url(#mask-2)"></path>
                    <path d="M25.7373705,11.4621556 C26.028667,11.9724459 26.6804908,12.1510278 27.1931938,11.8610454 C27.7058968,11.5711943 27.8853693,10.9227359 27.5940727,10.4124456 C26.7079194,8.78539507 27.1931938,7.99824376 27.9211055,6.82243731 C28.78616,5.41595709 30.0309944,3.49485653 27.4885783,0.419206151 C27.1386005,-0.0442408262 26.4772822,-0.137665019 26.0115242,0.210445069 C25.5456343,0.55868637 25.4517443,1.21672334 25.8017221,1.68030153 C25.8149089,1.69775296 25.8286232,1.71481075 25.8428649,1.73134368 C27.3936333,3.65244425 26.8978094,4.42909845 26.1171505,5.720373 C24.7814589,7.36120099 24.6292832,9.66137808 25.7373705,11.4621556" id="Fill-4" fill="#FFFFFF" mask="url(#mask-2)"></path>
                    <path d="M18.5,37.4878546 C16.1262142,37.4865878 13.7806043,36.9853235 11.6235261,36.0183913 C7.03072712,33.9869851 3.66247544,29.9933387 2.50336889,25.2051688 C5.92083099,27.3132151 12.3402583,28.4278537 18.5,28.4278537 C24.6597417,28.4278537 31.079169,27.3132151 34.4966311,25.2051688 C32.7321975,32.4251737 26.1077485,37.5115433 18.5,37.4878546 Z M27.173498,43.477184 L9.85766423,43.477184 L11.8312746,38.3087271 C16.1308885,39.9384379 20.9002737,39.9384379 25.1998877,38.3087271 L27.173498,43.477184 Z M6.77259966,18.4861748 L6.77259966,24.8403365 C3.76024705,23.8978532 2.07748456,22.6817457 2.07748456,21.6683228 C2.07748456,20.6548999 3.74985963,19.4590608 6.77259966,18.5165775 L6.77259966,18.4861748 Z M8.85008422,17.9287922 C10.5135001,17.5658602 12.2001579,17.311871 13.8983717,17.168725 L13.8983717,26.1476521 C12.2001579,26.0045061 10.51363,25.7506437 8.85008422,25.3875849 L8.85008422,17.9287922 Z M15.9758563,17.0268458 C16.7860752,17.0268458 17.6274565,17.0268458 18.5,17.0268458 C19.3725435,17.0268458 20.2139248,17.0268458 21.0241437,17.0876512 L21.0241437,26.3706051 C20.2035373,26.3706051 19.3725435,26.4314105 18.5,26.4314105 C17.6274565,26.4314105 16.7860752,26.4314105 15.9758563,26.3706051 L15.9758563,17.0268458 Z M23.1016283,17.209262 C24.7998421,17.3525346 26.48637,17.6063971 28.1499158,17.9693292 L28.1499158,25.4483903 C26.48637,25.8114491 24.7998421,26.0653115 23.1016283,26.2084575 L23.1016283,17.209262 Z M30.2274003,18.5267118 C33.2397529,19.4691951 34.9225154,20.6853026 34.9225154,21.6987255 C34.9225154,22.7121484 33.2397529,23.9282559 30.2274003,24.8708659 L30.2274003,18.5267118 Z M37,21.6987255 C37,17.3207385 27.4643459,15 18.5,15 C9.53565413,15 0,17.3612754 0,21.7291282 C0.0279161988,28.3833897 3.85866788,34.4665875 9.93037619,37.4979888 L4.50814149,51.6859097 C4.33804745,52.2204902 4.64434657,52.7883871 5.19228313,52.9542084 C5.69633282,53.1068553 6.23764739,52.8664207 6.45058956,52.3954324 L9.07860752,45.5141641 L27.9421673,45.5141641 L30.5701853,52.3954324 C30.801695,52.9074643 31.4149424,53.1394115 31.939767,52.9135448 C32.4226523,52.7057931 32.6690939,52.1776731 32.5126334,51.6859097 L27.0903987,37.4979888 C33.1639248,34.4559465 36.9876649,28.3595743 37,21.6987255 Z" id="Fill-5" fill="#FFFFFF" mask="url(#mask-2)"></path>
                </g>
                <g id="Group-5-Copy-4" transform="translate(154.000000, 35.000000)" stroke="#CD2533" stroke-linecap="square" stroke-width="2">
                    <path d="M0.409090909,1 L54,1" id="Line-2"></path>
                    <path d="M0.411111111,8 L37,8" id="Line-2-Copy"></path>
                </g>
                <g id="Group-5-Copy-5" transform="translate(27.000000, 39.500000) rotate(-180.000000) translate(-27.000000, -39.500000) translate(0.000000, 35.000000)" stroke="#CD2533" stroke-linecap="square" stroke-width="2">
                    <path d="M0.409090909,8 L54,8" id="Line-2-Copy-2"></path>
                    <path d="M0.411111111,1 L37,1" id="Line-2-Copy"></path>
                </g>
                <use id="Oval-2" stroke="#CD2533" mask="url(#mask-4)" stroke-width="2" stroke-dasharray="2" xlink:href="#path-3"></use>
            </g>
        </g>
    </g>
</svg>