<svg height="28" viewBox="0 0 17 28" width="17" xmlns="http://www.w3.org/2000/svg" xmlns:xlink="http://www.w3.org/1999/xlink"><mask id="a" fill="#fff"><path d="m.41084749.63689125h8.89922776v23.24453075h-8.89922776z" fill="none"/></mask><mask id="b" fill="#fff"><path d="m0 .66774377v4.29246843h16.686715v-4.29246843z" fill="none"/></mask><g fill="#fff" fill-rule="evenodd" transform="translate(0 -1)"><path d="m6.4898254 23.3381952c1.37144758-2.2251512-2.08633109-2.9880318-2.74383579-5.3401644-2.01202084-7.1903236 7.28993059-10.82715122 5.27696908-17.36173478-1.18708288 5.93241379-9.92653382 9.50079048-8.44315054 17.58494428.42987075 2.3422122 4.56302621 7.3024244 5.91001725 5.1169549" mask="url(#a)" transform="translate(0 .355548)"/><path d="m6.00483338 17.1873337c-.00752509 2.8074801 2.93948813 6.4720849 4.11810532 5.2231034 1.7561678-1.8690079-1.62259748-3.7548806-1.34981298-6.4978779.34897603-3.5316711 3.60263668-7.40063665.83998812-10.66743241.37531385 3.76182493-3.5988741 7.33218571-3.60828046 11.94220691"/><path d="m10.8494861 22.1455618c-.0714884 1.4513581 1.5087804 1.5307215 2.2697551 1.0138674 1.41942-.9593051 2.5368959-4.2786791 2.4456541-6.5861698-.1495611-3.8302758-2.5604117-5.3550451-4.2215752-6.2330026 2.068459 2.75887 1.8859756 7.0702864.4458615 10.0831193-.3066474.6388754-.9039514 1.0664457-.9396955 1.7221857"/><path d="m16.4850257.98817348c-.0743103-.08134748-.3010036-.32042971-.6951302-.32042971-.3894234 0-.8334037.23809018-1.3178313.70335809-.8992482.86902917-2.3901566 1.37100265-4.0833017 1.37100265-.96603342 0-2.00637706-.15674271-3.09469315-.46229178-3.34772423-.94541644-5.15374574-1.02775597-6.33706608-.22420159-.54933154.374-.8653853.79363395-.9406362 1.24302918-.08089471.49106101.15802688.83033952.17495833.85216445.14297671.17658356.48254637.31348542.78637187.31348542.26996259 0 .47972446-.10614855.59448208-.29562865.27090322-.45733157.83810685-.71030239.83716621-.71030239.26996259-.09424403.56155982-.14285411.88701994-.14285411.86632594 0 1.80790278.33134217 2.80403652.6825252.6029478.21130504 1.22470833.43054642 1.83424059.57340053.77226232.18154377 1.8060215.38888064 2.94701319.38888064 1.6028441 0 2.996867-.4067374 4.2620226-1.24302918 1.1814391-.78172944 1.4871459-1.49203183 1.5351183-1.95035544.0442099-.40971353-.1072325-.6894695-.193771-.77875331" mask="url(#b)" transform="translate(0 23.172524)"/></g></svg>