<?xml version="1.0" encoding="UTF-8"?>
<svg width="48px" height="69px" viewBox="0 0 48 69" version="1.1" xmlns="http://www.w3.org/2000/svg" xmlns:xlink="http://www.w3.org/1999/xlink">
    <!-- Generator: Sketch 50.2 (55047) - http://www.bohemiancoding.com/sketch -->
    <title>grill</title>
    <desc>Created with Sketch.</desc>
    <defs>
        <polygon id="path-1" points="0 69 0 0 48 0 48 69"></polygon>
    </defs>
    <g id="Footer" stroke="none" stroke-width="1" fill="none" fill-rule="evenodd">
        <g transform="translate(-963.000000, -371.000000)" id="grill">
            <g transform="translate(963.000000, 371.000000)">
                <mask id="mask-2" fill="white">
                    <use xlink:href="#path-1"></use>
                </mask>
                <g id="Clip-2"></g>
                <path d="M10.9217131,15.2797991 C11.2858338,15.9631037 12.1006135,16.2022339 12.7414923,15.8139328 C13.3823711,15.4258074 13.6067116,14.5574888 13.2425909,13.8741842 C12.1348992,11.695481 12.7414923,10.6414455 13.6513819,9.06698111 C14.7327,7.1836328 16.288743,4.61118176 13.1107229,0.492729994 C12.637811,-0.0974525777 11.8053939,-0.167381921 11.2515481,0.336706736 C10.7220978,0.818656957 10.6353946,1.65640346 11.0535812,2.24974867 C12.9920416,4.8221997 12.3722617,5.86217905 11.3964381,7.59126113 C9.72682368,9.78841298 9.536604,12.8684667 10.9217131,15.2797991" id="Fill-1" fill="#FFFFFF" mask="url(#mask-2)"></path>
                <path d="M21.9217131,15.2828775 C22.2858338,15.9632614 23.1006135,16.2013695 23.7414923,15.8147281 C24.3823711,15.4282617 24.6067116,14.5636546 24.2425909,13.8832707 C23.1348992,11.7138802 23.7414923,10.66435 24.6513819,9.09661548 C25.7327,7.22131731 27.288743,4.65986191 24.1107229,0.559013984 C23.6732506,-0.0589124191 22.8466027,-0.183652375 22.2644052,0.280667181 C21.6820429,0.744986738 21.5646803,1.62236525 22.0019878,2.24029166 C22.0186361,2.26373507 22.035779,2.28647868 22.0535812,2.30852249 C23.9920416,4.86997789 23.3722617,5.90551197 22.3964381,7.62720329 C20.7268237,9.81496367 20.536604,12.8816771 21.9217131,15.2828775" id="Fill-3" fill="#FFFFFF" mask="url(#mask-2)"></path>
                <path d="M32.9217131,15.2828742 C33.2858338,15.9632612 34.1006135,16.2013705 34.7414923,15.8147273 C35.3823711,15.428259 35.6067116,14.5636479 35.2425909,13.8832608 C34.1348992,11.7138601 34.7414923,10.664325 35.6513819,9.09658309 C36.7327,7.22127612 38.288743,4.65980871 35.1107229,0.558941534 C34.6732506,-0.0589877683 33.8466027,-0.183553358 33.2644052,0.280593425 C32.6820429,0.744915161 32.5646803,1.62229779 33.0021526,2.24040205 C33.0186361,2.26367062 33.035779,2.28641434 33.0535812,2.30845825 C34.9920416,4.86992566 34.3722617,5.9054646 33.3964381,7.627164 C31.7268237,9.81493465 31.536604,12.8818374 32.9217131,15.2828742" id="Fill-4" fill="#FFFFFF" mask="url(#mask-2)"></path>
                <path d="M24,48.181068 C20.9204941,48.1793678 17.8775407,47.5066183 15.079169,46.2088936 C9.12094329,43.4825326 4.75131948,38.1226388 3.2476137,31.6964107 C7.68107805,34.5256308 16.0089837,36.0215931 24,36.0215931 C31.9910163,36.0215931 40.318922,34.5256308 44.7523863,31.6964107 C42.4633914,41.3864173 33.8695115,48.2128608 24,48.181068 Z M35.2521056,56.2193785 L12.7883212,56.2193785 L15.3486805,49.2827654 C20.9265581,51.4700087 27.1138686,51.4700087 32.6917462,49.2827654 L35.2521056,56.2193785 Z M8.78607524,22.6788136 L8.78607524,31.2067675 C4.87815834,29.9418556 2.6951151,28.3097114 2.6951151,26.9495911 C2.6951151,25.5894709 4.86468276,23.984529 8.78607524,22.7196172 L8.78607524,22.6788136 Z M11.4811903,21.9307475 C13.6391353,21.4436544 15.8272319,21.1027743 18.03032,20.9106573 L18.03032,32.9613226 C15.8272319,32.7692056 13.6393038,32.4284955 11.4811903,31.9412324 L11.4811903,21.9307475 Z M20.7254351,20.7202405 C21.77653,20.7202405 22.8680517,20.7202405 24,20.7202405 C25.1319483,20.7202405 26.22347,20.7202405 27.2745649,20.8018477 L27.2745649,33.260549 C26.2099944,33.260549 25.1319483,33.3421562 24,33.3421562 C22.8680517,33.3421562 21.77653,33.3421562 20.7254351,33.260549 L20.7254351,20.7202405 Z M29.96968,20.9650621 C32.1727681,21.1573491 34.3606962,21.4980592 36.5188097,21.9851523 L36.5188097,32.0228396 C34.3606962,32.5101027 32.1727681,32.8508128 29.96968,33.0429298 L29.96968,20.9650621 Z M39.2139248,22.7332184 C43.1218417,23.9981302 45.3048849,25.6302745 45.3048849,26.9903947 C45.3048849,28.350515 43.1218417,29.9826593 39.2139248,31.2477411 L39.2139248,22.7332184 Z M48,26.9903947 C48,21.1146753 35.6294217,18 24,18 C12.3705783,18 0,21.1690801 0,27.0311983 C0.0362156092,35.9619178 5.00583942,44.1262095 12.8826502,48.1946692 L5.84839978,67.2363524 C5.62773723,67.9538158 6.02509826,68.7159932 6.73593487,68.9385429 C7.38983717,69.143411 8.0920831,68.8207225 8.3683324,68.1886066 L11.777653,58.9532202 L36.2492981,58.9532202 L39.6586188,68.1886066 C39.9589556,68.8758074 40.7545199,69.1871049 41.4353734,68.8839681 C42.0618192,68.6051434 42.3815272,67.8963508 42.1785514,67.2363524 L35.144301,48.1946692 C43.02347,44.1119283 47.9839978,35.929955 48,26.9903947 Z" id="Fill-5" fill="#FFFFFF" mask="url(#mask-2)"></path>
            </g>
        </g>
    </g>
</svg>