<?xml version="1.0" encoding="UTF-8"?>
<svg width="15px" height="21px" viewBox="0 0 15 21" version="1.1" xmlns="http://www.w3.org/2000/svg" xmlns:xlink="http://www.w3.org/1999/xlink">
    <!-- Generator: Sketch 50.2 (55047) - http://www.bohemiancoding.com/sketch -->
    <title>location pin</title>
    <desc>Created with Sketch.</desc>
    <defs>
        <polygon id="path-1" points="13 37 0 37 0 0 13 0 26 0 26 37 13 37"></polygon>
    </defs>
    <g id="Header" stroke="none" stroke-width="1" fill="none" fill-rule="evenodd">
        <g id="Navigation" transform="translate(-1239.000000, -8.000000)">
            <g id="Group-6" transform="translate(1213.000000, -1.000000)">
                <g id="location-pin" transform="translate(22.000000, 0.000000)">
                    <g id="find-a-club">
                        <mask id="mask-2" fill="white">
                            <use xlink:href="#path-1"></use>
                        </mask>
                        <g id="Clip-2"></g>
                        <path d="M18.0393813,14.5841667 C17.9694033,14.3242471 17.8283626,14.047288 17.7236669,13.8044079 C16.4743713,10.8103289 13.7441476,9.73684211 11.5393008,9.73684211 C8.58856527,9.73684211 5.33811816,11.7104459 4.90360412,15.7780117 L4.90360412,16.608348 C4.90360412,16.6432383 4.91526711,16.9548173 4.9320835,17.1111477 C5.17592128,19.0487792 6.71001081,21.1092032 7.85542453,23.0479167 C9.08763258,25.1248392 10.3664926,27.1682237 11.6334183,29.2105263 C12.4153809,27.8771199 13.1940886,26.5269444 13.9570649,25.2284284 C14.1656425,24.8481506 14.4073104,24.4678728 14.6150743,24.104364 C14.753674,23.8612135 15.0197528,23.6194152 15.1404511,23.394386 C16.3726592,21.1440936 18.3572654,18.8767617 18.3572654,16.6432383 L18.3572654,15.7260819 C18.3572654,15.4842836 18.0561977,14.635826 18.0393813,14.5841667 Z M11.5336163,19.0503432 C10.6379989,19.0503432 9.65811115,18.6099621 9.17460654,17.3924377 C9.10237481,17.1987031 9.10797417,16.8101315 9.10797417,16.7745813 L9.10797417,16.2275496 C9.10797417,14.6762946 10.4465008,13.9702517 11.6111674,13.9702517 C13.0440433,13.9702517 14.1529963,15.0995896 14.1529963,16.5108486 C14.1529963,17.9221077 12.9673321,19.0503432 11.5336163,19.0503432 Z" id="Fill-1" fill="#D7D5D5" mask="url(#mask-2)"></path>
                    </g>
                    <ellipse id="Oval-4" fill="#CD2533" cx="12" cy="16.5526316" rx="3" ry="2.92105263"></ellipse>
                </g>
            </g>
        </g>
    </g>
</svg>